<?xml version="1.0" standalone="no"?>
<!DOCTYPE svg PUBLIC "-//W3C//DTD SVG 20010904//EN"
 "http://www.w3.org/TR/2001/REC-SVG-20010904/DTD/svg10.dtd">
<svg version="1.0" xmlns="http://www.w3.org/2000/svg"
 width="696.000000pt" height="696.000000pt" viewBox="0 0 696.000000 696.000000"
 preserveAspectRatio="xMidYMid meet">
<metadata>
Created by potrace 1.14, written by Peter Selinger 2001-2017
</metadata>
<g transform="translate(0.000000,696.000000) scale(0.100000,-0.100000)"
fill="#000000" stroke="none">
<path d="M4819 6744 c-118 -119 -222 -224 -231 -233 -16 -16 -13 -18 45 -34
34 -10 82 -24 107 -32 25 -7 56 -16 70 -19 25 -5 70 -17 133 -35 17 -6 84 -24
147 -41 63 -18 144 -40 180 -50 36 -10 101 -28 145 -40 44 -11 94 -25 111 -31
17 -5 40 -11 50 -13 19 -4 282 -78 339 -95 17 -5 45 -12 63 -16 34 -7 47 -22
56 -70 3 -16 17 -73 31 -125 14 -52 28 -102 30 -110 2 -8 8 -30 14 -48 5 -18
10 -33 10 -35 0 -1 2 -9 5 -17 5 -17 17 -65 23 -95 6 -27 9 -37 16 -55 3 -8 9
-28 13 -45 4 -16 8 -34 10 -40 2 -5 5 -20 8 -31 2 -12 25 -97 50 -190 24 -93
57 -214 71 -269 15 -55 36 -131 46 -170 11 -38 24 -91 30 -117 6 -26 14 -50
18 -52 9 -6 12 -3 259 247 l203 207 -25 92 c-52 190 -77 284 -82 308 -2 14 -9
39 -14 55 -10 33 -70 261 -75 285 -2 8 -4 15 -5 15 -1 0 -3 11 -6 24 -6 31
-109 421 -130 491 -22 71 -55 125 -112 178 -55 52 -83 64 -222 103 -58 16
-127 36 -155 44 -27 8 -93 26 -145 39 -52 13 -129 34 -170 46 -41 12 -82 23
-90 25 -8 2 -40 11 -70 19 -30 8 -91 24 -135 36 -44 12 -120 33 -170 47 -49
14 -97 26 -106 28 -8 2 -40 10 -69 19 -30 9 -55 16 -56 16 -1 0 -98 -97 -215
-216z"/>
<path d="M3899 5809 c-123 -127 -225 -231 -227 -233 -2 -2 140 -43 178 -51 8
-2 26 -8 40 -13 14 -5 27 -10 30 -10 3 0 25 -5 50 -12 25 -7 52 -14 60 -16 8
-1 58 -15 110 -30 52 -14 104 -28 115 -30 11 -2 31 -8 45 -13 14 -6 79 -24
145 -41 66 -17 127 -34 135 -37 8 -3 22 -7 31 -9 8 -2 98 -26 200 -55 101 -28
191 -52 199 -54 100 -24 106 -28 125 -105 2 -8 8 -33 14 -55 5 -22 17 -69 26
-105 9 -36 19 -72 22 -80 4 -8 7 -19 8 -25 2 -5 10 -39 20 -75 9 -36 18 -74
20 -84 3 -10 9 -33 15 -51 6 -18 12 -41 15 -51 4 -20 33 -133 80 -309 15 -55
29 -111 32 -124 2 -13 8 -32 14 -43 5 -10 7 -18 5 -18 -3 0 -1 -12 5 -27 6
-16 13 -38 15 -51 2 -12 16 -64 30 -115 14 -50 27 -102 30 -114 15 -74 6 -79
221 139 243 244 253 256 253 271 0 7 -10 46 -21 87 -11 41 -34 125 -50 185
-16 61 -32 124 -35 140 -3 17 -10 38 -15 48 -5 9 -7 17 -5 17 3 0 1 11 -4 25
-5 14 -12 36 -14 48 -2 12 -21 83 -41 157 -33 123 -41 155 -49 185 -1 6 -5 19
-9 30 -3 11 -8 31 -11 45 -3 14 -19 77 -36 140 -17 63 -33 126 -36 139 -11 52
-57 131 -101 176 -58 57 -118 89 -209 110 -10 2 -50 13 -89 24 -150 43 -175
49 -175 44 0 -3 -7 0 -15 7 -8 7 -15 10 -15 7 0 -3 -21 2 -47 10 -27 8 -55 16
-63 18 -8 3 -58 16 -110 30 -52 15 -102 28 -110 30 -8 2 -40 10 -70 19 -172
47 -287 78 -301 81 -9 2 -47 12 -85 24 -127 37 -95 56 -345 -200z"/>
<path d="M1890 5319 c-126 -129 -330 -337 -1030 -1049 -490 -499 -718 -731
-752 -767 l-28 -29 24 -89 c13 -50 36 -134 50 -187 14 -54 38 -142 52 -195 14
-54 28 -105 30 -113 7 -28 62 -235 89 -334 15 -54 29 -110 31 -124 3 -14 9
-33 15 -44 5 -10 7 -18 5 -18 -3 0 -1 -11 4 -25 5 -14 12 -36 15 -48 2 -12 9
-40 15 -62 6 -22 12 -47 14 -55 3 -8 16 -60 31 -115 14 -55 28 -107 30 -115 1
-8 10 -41 20 -72 9 -31 18 -69 21 -84 3 -15 7 -31 10 -36 3 -4 7 -16 9 -27 2
-10 20 -81 40 -157 20 -77 39 -146 41 -154 7 -33 65 -245 78 -291 8 -27 15
-53 16 -57 0 -4 7 -29 14 -57 8 -27 17 -61 20 -75 15 -73 43 -154 56 -161 8
-4 51 -17 95 -29 44 -11 96 -25 115 -31 19 -6 42 -12 50 -13 8 -2 22 -5 30 -8
8 -3 53 -16 100 -28 47 -12 92 -25 100 -28 8 -3 20 -6 25 -8 65 -16 101 -26
165 -44 41 -11 82 -22 90 -24 45 -12 651 -177 680 -187 19 -5 42 -11 50 -12 8
-2 20 -5 25 -8 8 -5 94 -28 125 -34 5 -1 65 -18 160 -45 81 -23 297 -82 317
-86 12 -2 33 -8 45 -13 13 -5 25 -9 28 -9 3 0 12 -3 20 -6 16 -5 133 -35 163
-41 9 -2 22 -7 28 -10 5 -4 20 -8 32 -10 12 -2 38 -8 57 -14 19 -6 57 -16 83
-22 l48 -13 111 115 c61 63 202 207 313 321 111 114 219 226 239 248 20 22 40
40 46 40 5 0 10 3 10 8 0 7 54 64 555 578 154 158 335 344 403 413 67 69 152
156 188 193 l65 67 -21 78 c-11 43 -22 85 -24 93 -2 8 -9 35 -16 60 -7 25 -13
52 -15 61 -2 9 -12 47 -23 85 -11 38 -34 125 -52 194 -18 69 -40 154 -50 190
-10 36 -28 106 -40 155 -12 50 -25 97 -28 105 -3 8 -6 20 -7 25 0 10 -5 27
-35 130 -7 24 -30 112 -56 215 -5 23 -20 78 -39 145 -9 33 -18 67 -20 75 -2 8
-13 51 -25 95 -12 44 -25 96 -30 115 -5 19 -17 69 -28 110 -11 41 -39 145 -61
230 -22 85 -59 223 -81 305 -22 83 -42 159 -44 170 -8 46 -18 53 -129 84 -62
18 -121 33 -132 36 -11 2 -32 8 -47 14 -16 6 -28 8 -28 5 0 -2 -9 0 -21 6 -11
7 -32 14 -47 16 -14 3 -129 33 -256 68 -127 35 -244 67 -261 72 -37 9 -43 11
-52 14 -5 1 -12 2 -17 1 -4 -1 -13 2 -20 7 -6 5 -29 13 -51 17 -22 4 -44 10
-50 13 -5 3 -16 7 -25 8 -18 3 -8 0 -220 59 -91 25 -176 48 -190 51 -14 2 -36
9 -50 14 -21 7 -184 52 -240 66 -14 3 -152 41 -175 48 -5 2 -23 6 -40 10 -16
4 -37 10 -45 13 -8 3 -24 8 -35 10 -38 8 -50 11 -50 13 0 1 -7 3 -15 5 -36 9
-61 16 -170 45 -63 18 -122 34 -130 36 -8 2 -49 12 -90 23 -41 12 -75 20 -75
20 0 -1 -56 -59 -125 -130z m475 -588 c122 -35 137 -39 163 -45 9 -2 51 -14
92 -26 41 -12 84 -23 95 -26 11 -2 108 -29 215 -59 107 -31 206 -58 219 -61
13 -3 72 -19 130 -35 58 -17 113 -32 121 -34 8 -2 65 -18 125 -35 61 -17 117
-32 125 -34 41 -10 108 -28 135 -37 17 -5 89 -25 160 -44 238 -65 234 -63 244
-104 22 -85 41 -158 44 -177 2 -10 7 -26 10 -34 5 -13 16 -52 53 -200 2 -8 8
-31 13 -50 8 -29 40 -152 55 -210 2 -8 12 -44 21 -80 9 -36 19 -72 20 -80 2
-8 20 -76 40 -150 20 -74 37 -142 39 -150 2 -8 18 -69 36 -135 56 -212 149
-567 174 -665 l11 -45 -118 -120 c-65 -66 -299 -304 -520 -528 -221 -225 -493
-501 -603 -614 -111 -112 -210 -206 -220 -207 -11 -2 -27 1 -38 6 -10 6 -28
11 -40 13 -11 2 -64 15 -116 30 -52 15 -102 29 -110 30 -8 2 -15 4 -15 5 0 1
-7 3 -15 5 -8 1 -107 28 -220 59 -215 60 -488 135 -515 142 -59 16 -246 67
-305 83 -41 12 -84 24 -94 26 -10 2 -33 9 -51 15 -18 6 -41 12 -51 14 -10 2
-46 11 -79 20 -68 19 -65 18 -125 35 -25 8 -52 15 -60 16 -8 2 -15 4 -15 5 0
1 -7 3 -15 5 -56 11 -102 28 -105 38 -8 26 -67 255 -70 273 -2 10 -4 19 -5 19
-1 0 -3 7 -5 15 -10 40 -15 61 -35 135 -25 92 -89 332 -94 356 -2 8 -16 61
-31 117 -15 56 -28 107 -29 114 -2 7 -6 20 -9 28 -3 8 -8 26 -10 40 -3 14 -23
93 -45 175 -45 168 -132 502 -138 525 -2 8 -11 42 -20 75 -9 33 -18 67 -20 75
-2 8 -6 24 -9 35 -5 16 22 49 132 162 76 77 269 274 428 437 160 164 387 396
505 517 118 120 251 256 295 302 91 94 63 90 250 38z"/>
</g>
</svg>
